/* XPM */
static char *e92ba9f186384849904f929298bc624d[] = {
/* columns rows colors chars-per-pixel */
"32 32 124 2 ",
"   c black",
".  c #010101",
"X  c #020202",
"o  c gray1",
"O  c #040404",
"+  c gray2",
"@  c #060606",
"#  c gray3",
"$  c gray4",
"%  c #0B0B0B",
"&  c #0C0C0C",
"*  c #0E0E0E",
"=  c gray7",
"-  c #131313",
";  c gray8",
":  c #161616",
">  c gray9",
",  c #191919",
"<  c gray10",
"1  c #1B1B1B",
"2  c gray11",
"3  c #1D1D1D",
"4  c #1E1E1E",
"5  c #202020",
"6  c #232323",
"7  c #252525",
"8  c #272727",
"9  c #2A2A2A",
"0  c gray17",
"q  c #2F2F2F",
"w  c gray19",
"e  c #313131",
"r  c gray20",
"t  c #343434",
"y  c gray21",
"u  c #3A3A3A",
"i  c gray24",
"p  c #3F3F3F",
"a  c #414141",
"s  c gray26",
"d  c #444444",
"f  c gray27",
"g  c #484848",
"h  c #494949",
"j  c gray29",
"k  c #4C4C4C",
"l  c #4E4E4E",
"z  c #515151",
"x  c gray33",
"c  c #565656",
"v  c gray35",
"b  c #606060",
"n  c #646464",
"m  c #686868",
"M  c DimGray",
"N  c #6A6A6A",
"B  c gray43",
"V  c gray45",
"C  c #777777",
"Z  c gray47",
"A  c #7C7C7C",
"S  c #7E7E7E",
"D  c #808080",
"F  c #818181",
"G  c gray51",
"H  c gray53",
"J  c #898989",
"K  c gray54",
"L  c gray55",
"P  c #8D8D8D",
"I  c gray56",
"U  c gray57",
"Y  c #929292",
"T  c #939393",
"R  c gray58",
"E  c gray59",
"W  c #979797",
"Q  c #989898",
"!  c #9A9A9A",
"~  c gray61",
"^  c #9D9D9D",
"/  c gray62",
"(  c #A0A0A0",
")  c gray64",
"_  c #A4A4A4",
"`  c #A5A5A5",
"'  c #A7A7A7",
"]  c gray66",
"[  c #A9A9A9",
"{  c #AAAAAA",
"}  c #AEAEAE",
"|  c #AFAFAF",
" . c gray69",
".. c #B2B2B2",
"X. c #B7B7B7",
"o. c gray72",
"O. c #BBBBBB",
"+. c gray",
"@. c gray78",
"#. c gray79",
"$. c gray80",
"%. c #CECECE",
"&. c gray81",
"*. c #D0D0D0",
"=. c LightGray",
"-. c gray84",
";. c #D8D8D8",
":. c #DADADA",
">. c #E6E6E6",
",. c #E7E7E7",
"<. c #E9E9E9",
"1. c #ECECEC",
"2. c gray94",
"3. c gray95",
"4. c #F3F3F3",
"5. c #F4F4F4",
"6. c #F6F6F6",
"7. c #F8F8F8",
"8. c #F9F9F9",
"9. c #FBFBFB",
"0. c #FDFDFD",
"q. c #FEFEFE",
"w. c gray100",
"e. c None",
/* pixels */
"e.e.e.e.e.e.e.e.e.e.e.e.e.e.e.e.e.e.e.e.e.e.e.e.e.e.e.e.e.e.e.e.",
"e.e.e.e.e.e.e.e.e.e.e.e.e.e.e.e.e.e.e.e.e.e.e.e.e.e.e.e.e.e.e.e.",
"e.e.e.e.e.e.e.e.e.e.                        e.e.e.e.e.e.e.e.e.e.",
"e.e.e.e.e.e.e.e.                                e.e.e.e.e.e.e.e.",
"e.e.e.e.e.e.e.            d  .<.q.>.{ u           e.e.e.e.e.e.e.",
"e.e.e.e.e.              / q.q.q.q.q.q.q.H             e.e.e.e.e.",
"e.e.e.e.              K q.q.q.q.q.q.q.q.q.B             e.e.e.e.",
"e.e.e.              = 8.q.q.q.q.q.q.q.q.q.1.+             e.e.e.",
"e.e.3               j q.q.q.q.&...1.q.q.q.q.9             < e.e.",
"e.e.e.j             k q.q.q.P     < <.q.q.q.r           j e.e.e.",
"e.e.e.{ q           3 q.q.q.a       { q.q.5.%         r } e.e.e.",
"e.e.e.e.N ;            .q.q.} +   9 1.q.q.R         ; V e.e.e.e.",
"e.e.e.e.' d %         ; :.q.q.<.@.8.q.q.$.%       * k } e.e.e.e.",
"e.e.e.e.e.D 8 +         ;  .q.q.q.q.q.Q %       + r P e.e.e.e.e.",
"e.e.e.e.e.e.c ;         b 5.q.q.q.q.q...=       < n e.e.e.e.e.e.",
"e.e.e.e.e.e.R t %     n q.q.q. .K =.q.q.$.%   % a ' e.e.e.e.e.e.",
"e.e.e.e.e.e.e.N 3 + ; 5.q.q.P     + &.q.q.S + 8 S e.e.e.e.e.e.e.",
"e.e.e.e.e.e.e.' a * N q.q.q.v       Q q.q.=.; c e.e.e.e.e.e.e.e.",
"e.e.e.e.e.e.e.e.S 9 P q.q.q.*.5   t 1.q.q.q.t R e.e.e.e.e.e.e.e.",
"e.e.e.e.e.e.e.e.e.c D q.q.q.q.q.3.q.q.q.q.<.V e.e.e.e.e.e.e.e.e.",
"e.e.e.e.e.e.e.e.e.U c q.q.q.q.q.q.q.q.q.q.O.{ e.e.e.e.e.e.e.e.e.",
"e.e.e.e.e.e.e.e.e.e.N / q.q.q.q.q.q.q.q.1.R e.e.e.e.e.e.e.e.e.e.",
"e.e.e.e.e.e.e.e.e.e.' a P q.q.q.q.q.q.=.Z e.e.e.e.e.e.e.e.e.e.e.",
"e.e.e.e.e.e.e.e.e.e.e.S 8 q D  .o.Q v p / e.e.e.e.e.e.e.e.e.e.e.",
"e.e.e.e.e.e.e.e.e.e.e.e.c =       + 8 Z e.e.e.e.e.e.e.e.e.e.e.e.",
"e.e.e.e.e.e.e.e.e.e.e.e.U r %     = z  .e.e.e.e.e.e.e.e.e.e.e.e.",
"e.e.e.e.e.e.e.e.e.e.e.e.e.n 3 + % r P e.e.e.e.e.e.e.e.e.e.e.e.e.",
"e.e.e.e.e.e.e.e.e.e.e.e.e.' a ; 3 n e.e.e.e.e.e.e.e.e.e.e.e.e.e.",
"e.e.e.e.e.e.e.e.e.e.e.e.e.e.D a z { e.e.e.e.e.e.e.e.e.e.e.e.e.e.",
"e.e.e.e.e.e.e.e.e.e.e.e.e.e.e.U ( e.e.e.e.e.e.e.e.e.e.e.e.e.e.e.",
"e.e.e.e.e.e.e.e.e.e.e.e.e.e.e.O.e.e.e.e.e.e.e.e.e.e.e.e.e.e.e.e.",
"e.e.e.e.e.e.e.e.e.e.e.e.e.e.e.e.e.e.e.e.e.e.e.e.e.e.e.e.e.e.e.e."
};
