/* XPM */
static char *_6ad7011d7fc4e5c94564fc954afbe4e[] = {
/* columns rows colors chars-per-pixel */
"64 64 189 2 ",
"   c black",
".  c #010101",
"X  c #020202",
"o  c gray1",
"O  c #040404",
"+  c gray2",
"@  c #060606",
"#  c #070707",
"$  c gray3",
"%  c #090909",
"&  c gray4",
"*  c #0B0B0B",
"=  c #0C0C0C",
"-  c gray5",
";  c #0E0E0E",
":  c gray6",
">  c #111111",
",  c gray7",
"<  c #131313",
"1  c gray8",
"2  c #161616",
"3  c gray9",
"4  c #181818",
"5  c #191919",
"6  c #1B1B1B",
"7  c gray11",
"8  c #1D1D1D",
"9  c #1E1E1E",
"0  c #202020",
"q  c gray13",
"w  c #222222",
"e  c #232323",
"r  c gray14",
"t  c #252525",
"y  c gray15",
"u  c #272727",
"i  c #282828",
"p  c gray16",
"a  c #2A2A2A",
"s  c #2C2C2C",
"d  c #2D2D2D",
"f  c gray18",
"g  c #2F2F2F",
"h  c gray19",
"j  c #323232",
"k  c gray20",
"l  c #343434",
"z  c #353535",
"x  c #373737",
"c  c gray22",
"v  c #393939",
"b  c #3A3A3A",
"n  c #3C3C3C",
"m  c gray24",
"M  c #3E3E3E",
"N  c #3F3F3F",
"B  c gray25",
"V  c #414141",
"C  c gray26",
"Z  c #444444",
"A  c #464646",
"S  c gray28",
"D  c #484848",
"F  c gray29",
"G  c #4B4B4B",
"H  c #4C4C4C",
"J  c gray30",
"K  c #4E4E4E",
"L  c #505050",
"P  c #515151",
"I  c #535353",
"U  c gray33",
"Y  c #555555",
"T  c #565656",
"R  c #585858",
"E  c gray35",
"W  c #5A5A5A",
"Q  c #5B5B5B",
"!  c gray36",
"~  c #5D5D5D",
"^  c gray37",
"/  c #5F5F5F",
"(  c #606060",
")  c #626262",
"_  c #646464",
"`  c #656565",
"'  c #676767",
"]  c #686868",
"[  c DimGray",
"{  c #6A6A6A",
"}  c #6C6C6C",
"|  c #6F6F6F",
" . c gray44",
".. c #727272",
"X. c gray45",
"o. c #747474",
"O. c gray46",
"+. c gray47",
"@. c #797979",
"#. c gray48",
"$. c #7B7B7B",
"%. c #7C7C7C",
"&. c #7E7E7E",
"*. c gray50",
"=. c #808080",
"-. c #818181",
";. c #838383",
":. c #848484",
">. c gray52",
",. c gray53",
"<. c #888888",
"1. c #898989",
"2. c gray54",
"3. c #8B8B8B",
"4. c gray55",
"5. c #8D8D8D",
"6. c #8E8E8E",
"7. c #909090",
"8. c gray57",
"9. c #929292",
"0. c #939393",
"q. c gray58",
"w. c #979797",
"e. c gray60",
"r. c #9B9B9B",
"t. c gray61",
"y. c #9D9D9D",
"u. c #A0A0A0",
"i. c gray63",
"p. c gray64",
"a. c #A4A4A4",
"s. c #A5A5A5",
"d. c gray65",
"f. c #A7A7A7",
"g. c gray66",
"h. c #A9A9A9",
"j. c gray67",
"k. c #ACACAC",
"l. c gray68",
"z. c #AEAEAE",
"x. c #AFAFAF",
"c. c #B1B1B1",
"v. c gray71",
"b. c #B6B6B6",
"n. c gray72",
"m. c gray73",
"M. c #BBBBBB",
"N. c #BCBCBC",
"B. c gray74",
"V. c gray",
"C. c #C1C1C1",
"Z. c gray76",
"A. c #C5C5C5",
"S. c gray78",
"D. c #C8C8C8",
"F. c gray79",
"G. c gray80",
"H. c #CDCDCD",
"J. c #D0D0D0",
"K. c LightGray",
"L. c gray83",
"P. c #D5D5D5",
"I. c #D7D7D7",
"U. c gray86",
"Y. c gray87",
"T. c gray88",
"R. c #E1E1E1",
"E. c gray89",
"W. c #E4E4E4",
"Q. c #E6E6E6",
"!. c #E7E7E7",
"~. c #E9E9E9",
"^. c #EAEAEA",
"/. c gray92",
"(. c #EEEEEE",
"). c gray94",
"_. c #F1F1F1",
"`. c gray95",
"'. c #F3F3F3",
"]. c gray96",
"[. c #F6F6F6",
"{. c gray97",
"}. c #F9F9F9",
"|. c gray98",
" X c #FBFBFB",
".X c gray99",
"XX c #FEFEFE",
"oX c gray100",
"OX c None",
/* pixels */
"OXOXOXOXOXOXOXOXOXOXOXOXOXOXOXOXOXOXOXOXOXOXOXOXOXOXOXOXOXOXOXOXOXOXOXOXOXOXOXOXOXOXOXOXOXOXOXOXOXOXOXOXOXOXOXOXOXOXOXOXOXOXOXOX",
"OXOXOXOXOXOXOXOXOXOXOXOXOXOXOXOXOXOXOXOXOXOXOXOXOXOXOXOXOXOXOXOXOXOXOXOXOXOXOXOXOXOXOXOXOXOXOXOXOXOXOXOXOXOXOXOXOXOXOXOXOXOXOXOX",
"OXOXOXOXOXOXOXOXOXOXOXOXOXOXOXOXOXOXOXOXOXOXOXOXOXOXOXOXOXOXOXOXOXOXOXOXOXOXOXOXOXOXOXOXOXOXOXOXOXOXOXOXOXOXOXOXOXOXOXOXOXOXOXOX",
"OXOXOXOXOXOXOXOXOXOXOXOXOXOXOXOXOXOXOXOXOXOXOXOXOXOXOXOXOXOXOXOXOXOXOXOXOXOXOXOXOXOXOXOXOXOXOXOXOXOXOXOXOXOXOXOXOXOXOXOXOXOXOXOX",
"OXOXOXOXOXOXOXOXOXOXOXOXOXOXOXOXOXOXOXOXOXOXOXOXOXOXOXOXOXOXOXOXOXOXOXOXOXOXOXOXOXOXOXOXOXOXOXOXOXOXOXOXOXOXOXOXOXOXOXOXOXOXOXOX",
"OXOXOXOXOXOXOXOXOXOXOXOXOXOXOXOXOXOXOXOXOXOXOXOXOXOXOXOXOXOXOXOXOXOXOXOXOXOXOXOXOXOXOXOXOXOXOXOXOXOXOXOXOXOXOXOXOXOXOXOXOXOXOXOX",
"OXOXOXOXOXOXOXOXOXOXOXOXOXOXOXOXOXOXOX                                                    OXOXOXOXOXOXOXOXOXOXOXOXOXOXOXOXOXOXOX",
"OXOXOXOXOXOXOXOXOXOXOXOXOXOXOXOXOX                                                            OXOXOXOXOXOXOXOXOXOXOXOXOXOXOXOXOX",
"OXOXOXOXOXOXOXOXOXOXOXOXOXOXOXOX                                                                OXOXOXOXOXOXOXOXOXOXOXOXOXOXOXOX",
"OXOXOXOXOXOXOXOXOXOXOXOXOXOXOX                            1 L  .-.-.} Z $                         OXOXOXOXOXOXOXOXOXOXOXOXOXOXOX",
"OXOXOXOXOXOXOXOXOXOXOXOXOXOX                          T A.oXoXoXoXoXoXoX}.x.n                       OXOXOXOXOXOXOXOXOXOXOXOXOXOX",
"OXOXOXOXOXOXOXOXOXOXOXOX                          i G.oXoXoXoXoXoXoXoXoXoXoXoXh.<                       OXOXOXOXOXOXOXOXOXOXOXOX",
"OXOXOXOXOXOXOXOXOXOXOX                          L '.oXoXoXoXoXoXoXoXoXoXoXoXoXoXR.u                       OXOXOXOXOXOXOXOXOXOXOX",
"OXOXOXOXOXOXOXOXOXOX                          K oXoXoXoXoXoXoXoXoXoXoXoXoXoXoXoXoXW.u                       OXOXOXOXOXOXOXOXOXOX",
"OXOXOXOXOXOXOXOXOX                          4 (.oXoXoXoXoXoXoXoXoXoXoXoXoXoXoXoXoXoXZ.                        OXOXOXOXOXOXOXOXOX",
"OXOXOXOXOXOXOXOX                            y.oXoXoXoXoXoXoXoXoXoXoXoXoXoXoXoXoXoXoXoX^                         OXOXOXOXOXOXOXOX",
"OXOXOXOXOXOX                              $ '.oXoXoXoXoXoXoXoXoXoXoXoXoXoXoXoXoXoXoXoXN.                            OXOXOXOXOXOX",
"OXOXOXOXOX                                D oXoXoXoXoXoXoXoXoXoXoXoXoXoXoXoXoXoXoXoXoX}.$                             OXOXOXOXOX",
"OXOXOXOXOX4                               { oXoXoXoXoXoXoXoX'.N.i.N.'.oXoXoXoXoXoXoXoXoXu                           4 OXOXOXOXOX",
"OXOXOXOXOXn.l                             +.oXoXoXoXoXoXoXv.9       4 x.oXoXoXoXoXoXoXoXc                         l v.OXOXOXOXOX",
"OXOXOXOXOXOX-.4                           _ oXoXoXoXoXoXU.#             F.oXoXoXoXoXoXoXq                       4 1.OXOXOXOXOXOX",
"OXOXOXOXOXOXh.Z $                         C oXoXoXoXoXoX,.              _ oXoXoXoXoXoX}.$                     $ K x.OXOXOXOXOXOX",
"OXOXOXOXOXOXOX-.i #                       # ).oXoXoXoXoX,.              W oXoXoXoXoXoXn.                    # g 1.OXOXOXOXOXOXOX",
"OXOXOXOXOXOXOXOXT 1                         e.oXoXoXoXoXP.              y.oXoXoXoXoXoX^                     4 ) OXOXOXOXOXOXOXOX",
"OXOXOXOXOXOXOXOXq.l $                       4 ).oXoXoXoXoXe.#         { oXoXoXoXoXoXF.                    : n i.OXOXOXOXOXOXOXOX",
"OXOXOXOXOXOXOXOXOX{ 9                         ^ oXoXoXoXoXoXR.-.W O.A.oXoXoXoXoXoX).g                   # u %.OXOXOXOXOXOXOXOXOX",
"OXOXOXOXOXOXOXOXOXf.Z :                         O.oXoXoXoXoXoXoXoXoXoXoXoXoXoXoX}.n                     < L OXOXOXOXOXOXOXOXOXOX",
"OXOXOXOXOXOXOXOXOXOX-.u #                         ^ '.oXoXoXoXoXoXoXoXoXoXoXoXY.l                     $ l q.OXOXOXOXOXOXOXOXOXOX",
"OXOXOXOXOXOXOXOXOXOXOXT 1                           i N.oXoXoXoXoXoXoXoXoX'.6.:                     # 9 { OXOXOXOXOXOXOXOXOXOXOX",
"OXOXOXOXOXOXOXOXOXOXOXq.l $                       1 f.oXoXoXoXoXoXoXoXoXoX}.e.$                     < Z h.OXOXOXOXOXOXOXOXOXOXOX",
"OXOXOXOXOXOXOXOXOXOXOXOX{ 9                     c W.oXoXoXoXoXoXoXoXoXoXoXoXoXP.u                 # i ,.OXOXOXOXOXOXOXOXOXOXOXOX",
"OXOXOXOXOXOXOXOXOXOXOXOXf.C :                 l ).oXoXoXoXoXoXoXoXoXoXoXoXoXoXoXW.q               1 ^ OXOXOXOXOXOXOXOXOXOXOXOXOX",
"OXOXOXOXOXOXOXOXOXOXOXOXOX%.i #             4 ^.oXoXoXoXoXoXx.C 1 g +.'.oXoXoXoXoXP.$           $ c y.OXOXOXOXOXOXOXOXOXOXOXOXOX",
"OXOXOXOXOXOXOXOXOXOXOXOXOXOXT 1             f.oXoXoXoXoXoX}           q ^.oXoXoXoXoX-.        # q O.OXOXOXOXOXOXOXOXOXOXOXOXOXOX",
"OXOXOXOXOXOXOXOXOXOXOXOXOXOX8.h $         i oXoXoXoXoXoXJ.              _ oXoXoXoXoX'.:       < K c.OXOXOXOXOXOXOXOXOXOXOXOXOXOX",
"OXOXOXOXOXOXOXOXOXOXOXOXOXOXOX{ 4 #       -.oXoXoXoXoXoXf.              h oXoXoXoXoXoX^     $ h 6.OXOXOXOXOXOXOXOXOXOXOXOXOXOXOX",
"OXOXOXOXOXOXOXOXOXOXOXOXOXOXOXf.C :       Z.oXoXoXoXoXoXA.              D oXoXoXoXoXoXy.    4 _ OXOXOXOXOXOXOXOXOXOXOXOXOXOXOXOX",
"OXOXOXOXOXOXOXOXOXOXOXOXOXOXOXOX%.u #     Y.oXoXoXoXoXoXoXK             N.oXoXoXoXoXoXv.  : Z f.OXOXOXOXOXOXOXOXOXOXOXOXOXOXOXOX",
"OXOXOXOXOXOXOXOXOXOXOXOXOXOXOXOXOXT <     W.oXoXoXoXoXoXoX'.-.<     l N.oXoXoXoXoXoXoXF.$ i %.OXOXOXOXOXOXOXOXOXOXOXOXOXOXOXOXOX",
"OXOXOXOXOXOXOXOXOXOXOXOXOXOXOXOXOX8.l $   J.oXoXoXoXoXoXoXoXoXoX^.'.oXoXoXoXoXoXoXoXoXx.< W OXOXOXOXOXOXOXOXOXOXOXOXOXOXOXOXOXOX",
"OXOXOXOXOXOXOXOXOXOXOXOXOXOXOXOXOXOX{ 4 # h.oXoXoXoXoXoXoXoXoXoXoXoXoXoXoXoXoXoXoXoXoX6.c e.OXOXOXOXOXOXOXOXOXOXOXOXOXOXOXOXOXOX",
"OXOXOXOXOXOXOXOXOXOXOXOXOXOXOXOXOXOXf.C : L oXoXoXoXoXoXoXoXoXoXoXoXoXoXoXoXoXoXoXoXoXD } OXOXOXOXOXOXOXOXOXOXOXOXOXOXOXOXOXOXOX",
"OXOXOXOXOXOXOXOXOXOXOXOXOXOXOXOXOXOXOX%.u : R.oXoXoXoXoXoXoXoXoXoXoXoXoXoXoXoXoXoXoXG.K x.OXOXOXOXOXOXOXOXOXOXOXOXOXOXOXOXOXOXOX",
"OXOXOXOXOXOXOXOXOXOXOXOXOXOXOXOXOXOXOXOXL 1 D oXoXoXoXoXoXoXoXoXoXoXoXoXoXoXoXoXoX}.L ,.OXOXOXOXOXOXOXOXOXOXOXOXOXOXOXOXOXOXOXOX",
"OXOXOXOXOXOXOXOXOXOXOXOXOXOXOXOXOXOXOXOX8.h $ +.oXoXoXoXoXoXoXoXoXoXoXoXoXoXoXoXoX_ ) OXOXOXOXOXOXOXOXOXOXOXOXOXOXOXOXOXOXOXOXOX",
"OXOXOXOXOXOXOXOXOXOXOXOXOXOXOXOXOXOXOXOXOX{ 9 #  .oXoXoXoXoXoXoXoXoXoXoXoXoXoX).^ n i.OXOXOXOXOXOXOXOXOXOXOXOXOXOXOXOXOXOXOXOXOX",
"OXOXOXOXOXOXOXOXOXOXOXOXOXOXOXOXOXOXOXOXOXf.C :   h J.oXoXoXoXoXoXoXoXoXoXoXn.u u +.OXOXOXOXOXOXOXOXOXOXOXOXOXOXOXOXOXOXOXOXOXOX",
"OXOXOXOXOXOXOXOXOXOXOXOXOXOXOXOXOXOXOXOXOXOX%.q #     Z h.^.oXoXoXoXoXR.e.l   1 L OXOXOXOXOXOXOXOXOXOXOXOXOXOXOXOXOXOXOXOXOXOXOX",
"OXOXOXOXOXOXOXOXOXOXOXOXOXOXOXOXOXOXOXOXOXOXOXT <           9 l C h 4       $ h 8.OXOXOXOXOXOXOXOXOXOXOXOXOXOXOXOXOXOXOXOXOXOXOX",
"OXOXOXOXOXOXOXOXOXOXOXOXOXOXOXOXOXOXOXOXOXOXOX8.h $                         9 { OXOXOXOXOXOXOXOXOXOXOXOXOXOXOXOXOXOXOXOXOXOXOXOX",
"OXOXOXOXOXOXOXOXOXOXOXOXOXOXOXOXOXOXOXOXOXOXOXOX{ 4 #                     < Z h.OXOXOXOXOXOXOXOXOXOXOXOXOXOXOXOXOXOXOXOXOXOXOXOX",
"OXOXOXOXOXOXOXOXOXOXOXOXOXOXOXOXOXOXOXOXOXOXOXOXf.C :                   # i -.OXOXOXOXOXOXOXOXOXOXOXOXOXOXOXOXOXOXOXOXOXOXOXOXOX",
"OXOXOXOXOXOXOXOXOXOXOXOXOXOXOXOXOXOXOXOXOXOXOXOXOX+.u #                 4 ^ OXOXOXOXOXOXOXOXOXOXOXOXOXOXOXOXOXOXOXOXOXOXOXOXOXOX",
"OXOXOXOXOXOXOXOXOXOXOXOXOXOXOXOXOXOXOXOXOXOXOXOXOXOXT 1               $ c e.OXOXOXOXOXOXOXOXOXOXOXOXOXOXOXOXOXOXOXOXOXOXOXOXOXOX",
"OXOXOXOXOXOXOXOXOXOXOXOXOXOXOXOXOXOXOXOXOXOXOXOXOXOX8.h $           # q  .OXOXOXOXOXOXOXOXOXOXOXOXOXOXOXOXOXOXOXOXOXOXOXOXOXOXOX",
"OXOXOXOXOXOXOXOXOXOXOXOXOXOXOXOXOXOXOXOXOXOXOXOXOXOXOX{ 4 #         < K x.OXOXOXOXOXOXOXOXOXOXOXOXOXOXOXOXOXOXOXOXOXOXOXOXOXOXOX",
"OXOXOXOXOXOXOXOXOXOXOXOXOXOXOXOXOXOXOXOXOXOXOXOXOXOXOXi.C $       # g 1.OXOXOXOXOXOXOXOXOXOXOXOXOXOXOXOXOXOXOXOXOXOXOXOXOXOXOXOX",
"OXOXOXOXOXOXOXOXOXOXOXOXOXOXOXOXOXOXOXOXOXOXOXOXOXOXOXOX+.u #   # 4 _ OXOXOXOXOXOXOXOXOXOXOXOXOXOXOXOXOXOXOXOXOXOXOXOXOXOXOXOXOX",
"OXOXOXOXOXOXOXOXOXOXOXOXOXOXOXOXOXOXOXOXOXOXOXOXOXOXOXOXOXT 1 # $ C i.OXOXOXOXOXOXOXOXOXOXOXOXOXOXOXOXOXOXOXOXOXOXOXOXOXOXOXOXOX",
"OXOXOXOXOXOXOXOXOXOXOXOXOXOXOXOXOXOXOXOXOXOXOXOXOXOXOXOXOX6.h < i %.OXOXOXOXOXOXOXOXOXOXOXOXOXOXOXOXOXOXOXOXOXOXOXOXOXOXOXOXOXOX",
"OXOXOXOXOXOXOXOXOXOXOXOXOXOXOXOXOXOXOXOXOXOXOXOXOXOXOXOXOXOX} c ^ OXOXOXOXOXOXOXOXOXOXOXOXOXOXOXOXOXOXOXOXOXOXOXOXOXOXOXOXOXOXOX",
"OXOXOXOXOXOXOXOXOXOXOXOXOXOXOXOXOXOXOXOXOXOXOXOXOXOXOXOXOXOXc.6.h.OXOXOXOXOXOXOXOXOXOXOXOXOXOXOXOXOXOXOXOXOXOXOXOXOXOXOXOXOXOXOX",
"OXOXOXOXOXOXOXOXOXOXOXOXOXOXOXOXOXOXOXOXOXOXOXOXOXOXOXOXOXOXOXN.OXOXOXOXOXOXOXOXOXOXOXOXOXOXOXOXOXOXOXOXOXOXOXOXOXOXOXOXOXOXOXOX",
"OXOXOXOXOXOXOXOXOXOXOXOXOXOXOXOXOXOXOXOXOXOXOXOXOXOXOXOXOXOXOXOXOXOXOXOXOXOXOXOXOXOXOXOXOXOXOXOXOXOXOXOXOXOXOXOXOXOXOXOXOXOXOXOX"
};
