/* XPM */
static char *_243e773dae8417ee2dcb9c653088be5[] = {
/* columns rows colors chars-per-pixel */
"16 16 71 1 ",
"  c black",
". c #020202",
"X c #040404",
"o c gray2",
"O c #070707",
"+ c gray4",
"@ c gray7",
"# c #161616",
"$ c gray9",
"% c gray13",
"& c gray15",
"* c gray18",
"= c gray19",
"- c #343434",
"; c gray21",
": c #373737",
"> c gray22",
", c #3E3E3E",
"< c gray27",
"1 c #4C4C4C",
"2 c gray30",
"3 c gray39",
"4 c #646464",
"5 c #6A6A6A",
"6 c gray44",
"7 c #747474",
"8 c gray49",
"9 c #7E7E7E",
"0 c gray51",
"q c #838383",
"w c #848484",
"e c gray53",
"r c #888888",
"t c #8B8B8B",
"y c #8D8D8D",
"u c #8E8E8E",
"i c #929292",
"p c #939393",
"a c #9A9A9A",
"s c #9B9B9B",
"d c gray61",
"f c #A0A0A0",
"g c gray64",
"h c #A5A5A5",
"j c gray66",
"k c #AAAAAA",
"l c #AEAEAE",
"z c gray70",
"x c #B7B7B7",
"c c gray72",
"v c gray74",
"b c gray",
"n c #C1C1C1",
"m c gray76",
"M c #C5C5C5",
"N c gray78",
"B c #CACACA",
"V c #CBCBCB",
"C c LightGray",
"Z c #E6E6E6",
"A c gray91",
"S c #E9E9E9",
"D c gray92",
"F c gray93",
"G c gray95",
"H c gray97",
"J c #F8F8F8",
"K c gray99",
"L c #FDFDFD",
"P c gray100",
"I c None",
/* pixels */
"IIIIIIIIIIIIIIII",
"IIII        IIII",
"III   0AJn=  III",
"I    wPPPPA@   I",
"I    CPxpPP2   I",
"Iu+  cP$ NP= +uI",
"II4O =GVjPg O5II",
"IId>O pGHn$O,gII",
"III7%uP8<AN&8III",
"IIIl2DP: VP6IIII",
"IIIIwAPHDPPjIIII",
"IIIIIdPPPPNIIIII",
"IIIIIa3pd0kIIIII",
"IIIIII7*:rIIIIII",
"IIIIIIz78IIIIIII",
"IIIIIIIbbIIIIIII"
};
